<?xml version="1.0" encoding="UTF-8" standalone="no"?>
<svg viewBox="0 0 101.79798 146.65787" xmlns="http://www.w3.org/2000/svg">
<g transform="translate(20.5714,-489.71936)">
<path d="m-9.74881,636.06001c-1.48567-.25496-4.49015-2.42608-6.75-4.87772l-4.07259-4.41824v-8.96755c0-25.61363 3.52104-100.39888 4.83776-102.75172 1.01199-1.80833 5.91395-3.72058 43.43934-16.94566 13.0774-4.60887 24.93087-8.37976 26.34103-8.37976 1.45009,0 4.22275,1.41987 6.38228,3.26836 3.84905,3.29464 10.60585,5.73164 15.8915,5.73164 5.40295,0 5.50674.68007 4.23911,27.77579-.63618,13.59832-1.66617,35.74921-2.28887,49.22421-.7558,16.35513-1.57556,25.38402-2.46587,27.15916-.87325,1.74112-2.98092,3.2669-6.10498,4.41952-18.41499,6.79419-63.28758,25.04278-65.61264,26.68307-2.86472,2.02101-8.89437,2.92698-13.83607,2.0789zm11.5235-5.83805 5.15391-1.49741v-11.34978-11.34979l-6.69533.47765c-4.84364.34554-7.85122.0151-10.87482-1.19466-2.29872-.91977-4.41035-1.44144-4.69251-1.15928-.80275.80275-1.5692,19.1137-.90951,21.72884 .76406,3.02892 5.26934,5.78143 9.51826,5.81522 1.84035.0146 5.66535-.64722 8.5-1.47079zm39.45449-16.06865c16.33468-6.36133 30.09529-11.9547 30.57914-12.42972 .82864-.81352 2.06205-20.26995 4.64986-73.34922 .61257-12.56475.92778-23.03099.70045-23.25831s-14.09708,3.78525-30.82168,8.91685l-30.40835,9.33017-.65727,6.57379c-.6174,6.17501-1.48646,21.29417-3.89619,67.78249-.55593,10.725-1.27242,21.4125-1.59221,23.75-.39661,2.8991-.21139,4.25.58271,4.25 .64027,0 14.52887-5.20472 30.86354-11.56605zm-36.19199-13.02726c2.3225-.62341 2.59446-2.63193 4.02704-29.7415l.67824-12.8348-4.90693.80973c-6.93401,1.14425-10.98722.77654-15.37609-1.39489l-3.81193-1.886-.72047,19.68297c-.39625,10.82563-.4356,20.58045-.0875,21.67738s1.63561,2.47832 2.86101,3.06974c2.38035,1.14885 13.83673,1.55682 17.33659.61737zm-.22461-46.57527c2.26381-.64272 4.40013-1.43022 4.74738-1.75s.94451-7.0554 1.32724-14.96805c.63699-13.1691.5552-14.33264-.96644-13.74873-.91428.35084-4.12458.92728-7.134,1.28098-4.51269.53037-6.33754.23754-10.41201-1.67084-2.71718-1.27266-5.12254-2.12512-5.34523-1.89436s-.55624,6.76926-.74121,14.52998c-.35675,14.96766.0487,16.59101 4.60557,18.43808 2.99141,1.21253 9.22577,1.11531 13.9187-.21706zm26.28039-44.48412c20.53279-7.88718 30.33563-12.12265 30.33563-13.10699 0-.97412-.57781-1.23263-1.75-.78295-37.58703,14.41911-61.95515,24.01293-62.7,24.6852-3.09883,2.7969 7.27894-.48708 34.11437-10.79526zm11.58563,1.44728c15.2625-5.09528 27.75-9.6085 27.75-10.02936 0-2.32107-9.64371.20787-31.74701,8.32526-13.61415,4.99977-25.42799,9.48609-26.25299,9.9696-4.79407,2.80966 5.50343-.004 30.25-8.2655zm-23.75-2.79628 30.25-11.20313c4.5375-1.68337 8.25-3.48126 8.25-3.99531s-1.0125-.61777-2.25-.2305c-39.58867,12.38925-66.64092,21.44512-67.31359,22.53353-.33472.5416-.0808,1.62072.56438,2.39806 1.00507,1.21104 1.69726,1.21485 4.83609.0266 2.01471-.76271 13.56312-5.05087 25.66312-9.52923z" fill="rgba(255,255,255,.2)"/>
</g>
</svg>
