<?xml version="1.0" encoding="utf-8"?>
<!-- Svg Vector Icons : http://www.onlinewebfonts.com/icon -->
<!DOCTYPE svg PUBLIC "-//W3C//DTD SVG 1.1//EN" "http://www.w3.org/Graphics/SVG/1.1/DTD/svg11.dtd">
<svg version="1.1" xmlns="http://www.w3.org/2000/svg" xmlns:xlink="http://www.w3.org/1999/xlink" x="0px" y="0px" viewBox="0 0 1000 1000" enable-background="new 0 0 1000 1000" xml:space="preserve">
<metadata> Svg Vector Icons : http://www.onlinewebfonts.com/icon </metadata>
<g><g><g id="c129_exclamation"><path d="M500,10C229.4,10,10,229.3,10,499.9C10,770.6,229.4,990,500,990c270.6,0,490-219.4,490-490.1C990,229.3,770.7,10,500,10z M500,939.8c-243,0-439.8-197-439.8-440C60.2,257,257,60.1,500,60.1c242.9,0,439.8,196.9,439.8,439.8C939.8,742.9,742.9,939.8,500,939.8z"/><polygon points="556,611.3 577.4,170.5 423.7,170.5 445,611.3 "/><path d="M500.6,660c-51.6,0-87.6,36.1-87.6,88.5c0,50.6,35,88.6,85.7,88.6h2c52.5,0,86.5-38,86.5-88.6C586.2,696,552.1,660,500.6,660z"/></g><g id="Capa_1_207_"></g></g><g></g><g></g><g></g><g></g><g></g><g></g><g></g><g></g><g></g><g></g><g></g><g></g><g></g><g></g><g></g></g>
</svg>