<?xml version="1.0" encoding="UTF-8" standalone="no"?>
<svg viewBox="0 0 207.60913 226.90083" xmlns="http://www.w3.org/2000/svg">
	<g transform="translate(-40,-45.38248)">
		<circle id="programmers-head" r="20" cx="65" cy="66" fill="#000000" />
		<animate href="#programmers-head" attributeName="cx" from="65" to="65" dur=".7s" repeatCount="indefinite" d="circ-anim" values="65; 80; 65" keyTimes="0; 0.5; 1" />
		<animate href="#programmers-head" attributeName="cy" from="66" to="66" dur=".7s" repeatCount="indefinite" d="circ-anim" values="66; 67; 66" keyTimes="0; 0.5; 1" />
		<path d="m57.17259,87.6665h14.64721a17.17259,17.17259 0 0,1 17.17259,17.17259v80.35049a17.17259,17.17259 0 0,1 -17.17259,17.17259h-14.64721a17.17259,17.17259 0 0,1 -17.17259-17.17259v-80.35049a17.17259,17.17259 0 0,1 17.17259-17.17259"/>
		<path d="m55.05331,173.79344h80.81221a14.64721,14.64721 0 0,1 14.64721,14.64721 14.64721,14.64721 0 0,1 -14.64721,14.64721h-80.81221a14.64721,14.64721 0 0,1 -14.64721-14.64721 14.64721,14.64721 0 0,1 14.64721-14.64721"/>
		<path d="m139.40105,179.34927a11.11168,11.11168 0 0,1 11.11168,11.11168v70.71068a11.11168,11.11168 0 0,1 -11.11168,11.11168 11.11168,11.11168 0 0,1 -11.11168-11.11168v-70.71068a11.11168,11.11168 0 0,1 11.11168-11.11168"/>
		<path d="m107.915,142.98378h130.30968a7.82868,7.82868 0 0,1 7.82868,7.82868v.50508a7.82868,7.82868 0 0,1 -7.82868,7.82868h-130.30968a7.82868,7.82868 0 0,1 -7.82868-7.82868v-.50508a7.82868,7.82868 0 0,1 7.82868-7.82868"/>
		<path d="m116.44169,127.04215h21.17001a8.35536,7.32361 0 0,1 8.35536,7.32361 8.35536,7.32361 0 0,1 -8.35536,7.32361h-21.17001a8.35536,7.32361 0 0,1 -8.35536-7.32361 8.35536,7.32361 0 0,1 8.35536-7.32361"/>
		<path d="m127.41818,6.81552h43.89845a10.37567,6.99607 0 0,1 10.37567,6.99607v1.16015a10.37567,6.99607 0 0,1 -10.37567,6.99607h-43.89845a10.37567,6.99607 0 0,1 -10.37567-6.99607v-1.16015a10.37567,6.99607 0 0,1 10.37567-6.99607" transform="rotate(44.48978)"/>
		<path d="m152.55332,127.54723h18.68782a5.05076,6.81853 0 0,1 5.05076,6.81853 5.05076,6.81853 0 0,1 -5.05076,6.81853h-18.68782a5.05076,6.81853 0 0,1 -5.05076-6.81853 5.05076,6.81853 0 0,1 5.05076-6.81853"/>
		<path d="m195.28432,132.0726h42.93148a1.51523,4.79822 0 0,1 1.51523,4.79822 1.51523,4.79822 0 0,1 -1.51523,4.79822h-42.93148a1.51523,4.79822 0 0,1 -1.51523-4.79822 1.51523,4.79822 0 0,1 1.51523-4.79822"/>
		<path d="m210.01276,118.94063h15.15229a1.51523,8.71078 0 0,1 1.51523,8.71078 1.51523,8.71078 0 0,1 -1.51523,8.71078h-15.15229a1.51523,8.71078 0 0,1 -1.51523-8.71078 1.51523,8.71078 0 0,1 1.51523-8.71078"/>
		<path d="m181.26401,63.66166h7.57614a1.51523,9.59645 0 0,1 1.51523,9.59645v50.50763a1.51523,9.59645 0 0,1 -1.51523,9.59645h-7.57614a1.51523,9.59645 0 0,1 -1.51523-9.59645v-50.50763a1.51523,9.59645 0 0,1 1.51523-9.59645"/>
		<path d="m187.83001,70.81624 59.27912,16.16244v31.8198l-58.77404,8.5863-.50508-56.56854z" fill-rule="evenodd" stroke="#000"/>
		<path d="m44.42641,205.87465h63.63961a1.51523,5.55584 0 0,1 1.51523,5.55584 1.51523,5.55584 0 0,1 -1.51523,5.55584h-63.63961a1.51523,5.55584 0 0,1 -1.51523-5.55584 1.51523,5.55584 0 0,1 1.51523-5.55584"/>
		<path d="m71.74113,211.4305h8.5863a1.51523,9.59645 0 0,1 1.51523,9.59645v40.91118a1.51523,9.59645 0 0,1 -1.51523,9.59645h-8.5863a1.51523,9.59645 0 0,1 -1.51523-9.59645v-40.91118a1.51523,9.59645 0 0,1 1.51523-9.59645"/>
	</g>
</svg>
