<?xml version="1.0" encoding="UTF-8" standalone="no"?>
<svg width="640" xmlns="http://www.w3.org/2000/svg" height="480">
 <defs>
  <clipPath id="clipPath16">
   <path id="path18" d="m0 1166h857v-1166h-857v1166z"/>
  </clipPath>
 </defs>
 <g id="g10">
  <g id="g12">
   <g id="g14" style="clip-path:url(#clipPath16)">
    <g id="g20">
     <path id="path22" d="m275.26 0h29.996c8.95 2.9738 17.719 6.9362 24.926 13.141 0.77753 1.0012 1.5688 1.9975 2.3775 2.9888-9.9125-3.1938-19.206-8.1988-29.434-10.408-17.178-3.5638-35.296 0.63875-50.644 8.635-0.65126-0.3125-1.2938-0.625-1.9262-0.9375 7.5625-5.5688 15.389-11.23 24.704-13.42z" stroke="rgba(255,255,255,.2)" stroke-miterlimit="10" stroke-width=".1" fill="none"/>
    </g>
    <g id="g24">
     <path id="path26" fill="rgba(255,255,255,.2)" d="m275.26 0h29.996c8.95 2.9738 17.719 6.9362 24.926 13.141 0.77753 1.0012 1.5688 1.9975 2.3775 2.9888-9.9125-3.1938-19.206-8.1988-29.434-10.408-17.178-3.5638-35.296 0.63875-50.644 8.635-0.65126-0.3125-1.2938-0.625-1.9262-0.9375 7.5625-5.5688 15.389-11.23 24.704-13.42"/>
    </g>
    <g id="g28">
     <path id="path30" d="m268.56 19.581c8.5187-2.9112 17.601-1.2925 26.405-1.7262 12.935-1.0638 24.694 5.555 35.65 11.541 2.4788 1.4338 5.0075-0.79125 7.2162-1.7562-1.27-3.05-2.635-6.0588-3.8-9.1462 3.7937 1.565 4.8062 5.8262 6.5825 9.1238-6.9988 9.0375-17.894 13.396-27.516 18.934-6.7713 3.05-13.464 6.3925-20.631 8.425 7.245 9.7038 14.502 19.538 19.519 30.628 4.2438 9.6362 8.8412 19.212 11.316 29.501-7.3837-8.9262-12.171-19.838-20.568-27.939-2.4812 2.1175-6.1275 4.0812-6.2625 7.7438 0.19626 6.48 2.1437 12.736 3.6325 19.004 2.4825 11.332 5.7138 22.499 7.5 33.98 2.4762 15.194 5.9475 30.366 5.89 45.83 1.7963 10.729-0.16501 21.666 1.6425 32.396 0.25998 14.915-0.017517 29.841 0.11624 44.761 5.105-4.2137 9.56-9.2125 12.952-14.91 10.395-16.885 16.278-36.042 21.532-55.024 8.035-31.828 12.818-64.454 14.589-97.214-0.54248-11.882 1.4213-24.119-2.1325-35.68-1.0612-5.6188-9.3162-6.6088-8.715-12.982-1.0775-5.2162 2.5625-9.9725 1.7088-15.081-3.4625-8.835-13.509-12.829-17.405-21.461 12.542 2.6112 22.191 11.609 32.182 18.99 8.9213 7.2612 19.234 13.115 26.216 22.48 12.195 13.906 30.434 19.502 47.726 24.008 25.576 6.3825 51.626 11.82 78.025 12.768 11.74 3.9538 19.561 16.141 20.035 28.325 1.98 22.829 5.6588 45.446 8.2963 68.2 0.92999 5.3275 0.57251 10.76 0.50995 16.14 4.0163 1.7013 8.2513 3.2288 11.292 6.5275-2.88 4.785-7.4913 8.7712-8.5912 14.439-0.65997 3.6963 2.3575 6.35 4.7963 8.5887 2.0774 1.62 2.4862 4.2863 3.2412 6.6488-2.4962 0.97376-4.9725 1.9962-7.4275 3.0275 2.2162 7.4575 6.5837 14.189 7.7575 21.965 4.0513 22.046 3.1962 44.652 7.2913 66.706 2.1887 16.748 3.3438 33.635 4.3762 50.479 1.1275 5.2962-0.015015 10.809 1.4575 16.052v31.514c-1.9413 10.411-2.8125 20.984-4.5237 31.434-9.2225 7.4075-17.338 16.255-27.569 22.342-6.8612 4.375-13.542 9.0237-20.342 13.488-17.252 11.704-35.751 21.434-53.114 32.955 1.9488 5.3912 0.61002 11.212 1.6675 16.766 3.7725 55.169 7.3263 110.33 11.215 165.5-8.9088 5.2275-19.542 5.7938-29.588 6.585-0.051239 18.229-3.5075 36.284-3.8875 54.509-0.77249 15.068-3.7588 29.9-4.65 44.959-1.1638 20.922-5.8738 41.429-8.3637 62.201-4.91 35.102-15.325 69.076-22.036 103.82-1.1462 8.8275 0.3425 17.794-0.91126 26.631-0.82501 11.534 0.39999 23.144-0.63 34.67-1.1325 6.1825-0.16623 12.494-0.94998 18.709-1.885 13.651-3.38 27.512-1.6325 41.268 0.4375 38.806 7.8025 77.238 8.4175 116.04 1.6587 9.2101 0.037476 18.602 1.3012 27.852 0.76502 10.345-0.52624 20.781 1.1275 31.08-0.7825 17.435 3.66 34.454 6.835 51.458 2.36 13.511 7.4613 26.912 16.5 37.398 2.0075 3.0901 6.0088 1.8213 9.08 2.0312 6.3625 1.5601 7.5487 9.02 12.95 11.898 4.36 2.7462 8.82 5.3524 12.936 8.49 3.4112 3.8862 5.5163 8.6749 5.375 13.94 1.7325 1.4187 3.4375 2.89 5.1413 4.3888-0.016266 2.4424-0.012512 4.8962 0.027496 7.375-5.9888 2.3849-11.955 4.8262-17.941 7.2098-12.28 4.8977-25.846 6.6075-38.928 4.7201-6.7975-0.9812-13.786-0.58484-20.456-2.2726-5.9212-3.4611-13.059-4.5862-18.41-9.0011-5.6888-5.8525-9.1012-14.151-16.592-18.095-2.8575-1.8348-6.12-0.46619-9.1037 0.13-1.3838 1.4863-2.7663 2.9801-4.135 4.4939-7.4575 0.082397-14.62-2.2601-21.549-4.7526-7.2713-3.0387-15.271-5.6112-20.642-11.679-0.72873-6.7363-1.19-13.478-1.14-20.245-1.1088-6.86-0.655-13.809-1.2413-20.698-2.225-0.38611-4.4362-0.76868-6.65-1.0674-0.53125-2.6388-0.89624-5.3114-1.2913-7.9476-1.1937-9.4412-6.8912-17.858-6.2437-27.601 0.21374-9.7176 1.7713-19.369 1.91-29.064-3.0388-23.629-6.8825-47.218-7.8312-71.041 0.50626-14.259-1.4475-28.422-3.04-42.556-1.4225-11.548-0.815-23.257-2.9975-34.704-5.975-38.554-12.92-76.946-19.529-115.39-7.11-42.6-14.98-85.106-20.444-127.96-0.7475 19.351-0.17 38.734-0.34999 58.1 0.033737 48.734-0.070007 97.471 0.049988 146.2 1.2925 8.7225 0.071259 17.582 1.5075 26.296 0.4875 5.4451-0.265 10.964 0.66374 16.39 2.1738 22.574-2.07 44.986-4.6287 67.344-1.7688 12.435-1.0563 24.995-1.1813 37.515 0.27 25.799-1.485 52.004-9.64 76.674-2.3738 6.6374-5.95 13.564-4.1075 20.804 1.31 16.929-2.0975 33.786-2.39 50.705-5.3875 6.0888-13.336 8.7175-20.944 10.786-7.5237 1.8163-15.309 3.8614-23.075 2.5201-4.0038-2.2825-8.0612-4.5188-12.72-5.05-2.9388 0.75745-6.045 1.1787-8.6662 2.8137-8.0825 4.9299-12.821 13.951-21.356 18.263-5.42 2.8324-11.67 3.2013-17.252 5.5812-7.9275 3.75-16.895 3.6025-25.336 5.3726-5.7812 1.61-11.666-0.070068-17.514-0.11877-16.525-1.3438-31.95-7.8699-47.905-11.792 0.075016-3.055 0.41376-6.0801 1.405-8.96 1.8962-0.90002 3.7825-1.8113 5.6975-2.6652 0.40501-5.3125 2.3912-10.729 6.965-13.812 6.5375-4.1438 13.87-6.8562 20.592-10.676 3.6925-2.2576 6.0962-6.0299 9.5325-8.6 4.0362-2.2138 8.8625-1.09 13.261-1.25 7.6662-4.6938 12.2-12.68 16.951-20.011 5-9.6598 9.6512-20.552 7.3662-31.649-0.6625-11.245-2.1138-22.422-3.185-33.629 2.095-1.6499 6.8475-1.7675 6.4175-5.2661-1.1925-22.499-5.6412-45.019-2.8088-67.583 0.6775-24.268 5.915-48.159 6.6888-72.408 1.3962-8.3313-0.105-16.812 1.1325-25.149 1.055-15.476-0.80375-31.101 0.99376-46.514-1.8488-29.318-7.2263-58.252-12.922-87.024-2.2062-19.292-7.4925-38.076-9.4538-57.395-2.1375-19.241-2.6125-38.641-5.8588-57.756-4.0187-24.836-5.8862-49.945-8.8788-74.91-1.0862-18.848 2.2275-37.522 4.1512-56.205 1.1512-7.17 0.56375-14.504 2.1425-21.606 0.27-0.67999 0.80875-2.04 1.08-2.7212-6.9113-3.1663-14.511-4.6125-21.501-7.6313-2.8275-0.82752-5.72-2.9038-8.7375-1.8674 1.0537-2.8575 1.3937-5.8838 1.7987-8.8726 6.7987-54.914 13.858-109.79 20.716-164.69-0.88125-3.6113-0.020004-7.8263-2.1625-11.008-4.88-4.7426-10.58-8.55-16.185-12.372-9.295-6.4363-17.395-14.366-26.105-21.532-6.2-4.7275-10.459-11.366-15.596-17.122-7.5862-9.675-15.314-19.291-21.808-29.752-3.8688-6.525-8.165-13.112-9.2575-20.781-1.4912-7.0713 0.19501-14.21 0.24126-21.31 0.88375-22.594 6.1775-44.748 7.375-67.321 1.6162-17.245 4.3675-34.361 7.5-51.389 2.6912-13.809 5.9962-27.502 7.7713-41.475 0.415-4.85 5.1075-7.975 5.1988-12.879-2.9138-1.2775-7.665-3.8387-5.5575-7.6937 2.4975-2.8488 6.4838-3.9913 9.56-6.1825 0.4225-1.4888 0.86374-2.9712 1.3188-4.4488-1.7613-2.2188-3.6475-4.4725-4.48-7.2275-1.0675-6.2525 2.1287-11.975 3.2662-17.952 3.8088-19.745 8.1175-39.409 13.706-58.734 2.3638-7.5787 2.9888-15.619 5.76-23.076 1.7962-5.6012 7.1863-9.2562 12.65-10.73 16.836-4.3325 34.2-5.9338 51.212-9.4062 14.39-3.1762 29.276-5.0688 42.806-11.219 7.8762-3.435 16.374-6.2862 22.734-12.312 3.6213-3.965 6.53-8.655 11.045-11.735 10.485-7.53 22.289-12.962 33.068-20.044-1.7712 5.7475-4.1362 11.28-6.0275 16.981-2.0588 6.3688-1.0325 13.43 2.3062 19.18-1.1325 7.8438-4.8937 15.108-7.47 22.582-4.2712 11.196-5.4325 23.271-5.97 35.148-1.625 9.985 0.14999 20.042 0.97749 30.005 4.42 27.266 12.998 54.105 26.92 78.049 9.015 16.578 18.18 33.29 30.179 47.941 0.42752-0.20374 1.2825-0.60998 1.7088-0.81375l-1.5825-2.38c0.25751-16.428-0.17749-32.865 0.20627-49.285 1.6925-9.1325-0.10001-18.471 1.4587-27.61 0.71374-14.429 1.0588-28.858 2.2125-43.265 3.0438-20.456 12.098-39.552 13.934-60.24-2.3525-2.9712-5.0487-5.6388-7.6825-8.3462-3.1125 1.5512-6.1875 3.3775-8.0063 6.4525-5.2162 6.2638-8.7287 13.905-14.881 19.368 2.5488-10.441 8.6488-19.504 12.578-29.419 5-9.285 8.02-20.369 17.189-26.612-5.9587-3.615-12.499-6.0588-18.69-9.2125-10.869-5.1388-22.601-9.7175-31.298-18.242-1.3112-5.345 4.505-6.1125 8.3738-5.6088-1.1813 1.0325-2.3238 2.0962-3.4275 3.19 1.2962 2.0138 2.8612 3.8375 4.3025 5.7575 8.1688-4.4512 16.38-9.0012 25.399-11.535z" stroke="rgba(255,255,255,.2)" stroke-miterlimit="10" stroke-width=".1" fill="none"/>
    </g>
    <g id="g32">
     <path id="path34" fill="rgba(255,255,255,.2)" d="m268.56 19.581c8.5187-2.9112 17.601-1.2925 26.405-1.7262 12.935-1.0638 24.694 5.555 35.65 11.541 2.4788 1.4338 5.0075-0.79125 7.2162-1.7562-1.27-3.05-2.635-6.0588-3.8-9.1462 3.7937 1.565 4.8062 5.8262 6.5825 9.1238-6.9988 9.0375-17.894 13.396-27.516 18.934-6.7713 3.05-13.464 6.3925-20.631 8.425 7.245 9.7038 14.502 19.538 19.519 30.628 4.2438 9.6362 8.8412 19.212 11.316 29.501-7.3837-8.9262-12.171-19.838-20.568-27.939-2.4812 2.1175-6.1275 4.0812-6.2625 7.7438 0.19626 6.48 2.1437 12.736 3.6325 19.004 2.4825 11.332 5.7138 22.499 7.5 33.98 2.4762 15.194 5.9475 30.366 5.89 45.83 1.7963 10.729-0.16501 21.666 1.6425 32.396 0.25998 14.915-0.017517 29.841 0.11624 44.761 5.105-4.2137 9.56-9.2125 12.952-14.91 10.395-16.885 16.278-36.042 21.532-55.024 8.035-31.828 12.818-64.454 14.589-97.214-0.54248-11.882 1.4213-24.119-2.1325-35.68-1.0612-5.6188-9.3162-6.6088-8.715-12.982-1.0775-5.2162 2.5625-9.9725 1.7088-15.081-3.4625-8.835-13.509-12.829-17.405-21.461 12.542 2.6112 22.191 11.609 32.182 18.99 8.9213 7.2612 19.234 13.115 26.216 22.48 12.195 13.906 30.434 19.502 47.726 24.008 25.576 6.3825 51.626 11.82 78.025 12.768 11.74 3.9538 19.561 16.141 20.035 28.325 1.98 22.829 5.6588 45.446 8.2963 68.2 0.92999 5.3275 0.57251 10.76 0.50995 16.14 4.0163 1.7013 8.2513 3.2288 11.292 6.5275-2.88 4.785-7.4913 8.7712-8.5912 14.439-0.65997 3.6963 2.3575 6.35 4.7963 8.5887 2.0774 1.62 2.4862 4.2863 3.2412 6.6488-2.4962 0.97376-4.9725 1.9962-7.4275 3.0275 2.2162 7.4575 6.5837 14.189 7.7575 21.965 4.0513 22.046 3.1962 44.652 7.2913 66.706 2.1887 16.748 3.3438 33.635 4.3762 50.479 1.1275 5.2962-0.015015 10.809 1.4575 16.052v31.514c-1.9413 10.411-2.8125 20.984-4.5237 31.434-9.2225 7.4075-17.338 16.255-27.569 22.342-6.8612 4.375-13.542 9.0237-20.342 13.488-17.252 11.704-35.751 21.434-53.114 32.955 1.9488 5.3912 0.61002 11.212 1.6675 16.766 3.7725 55.169 7.3263 110.33 11.215 165.5-8.9088 5.2275-19.542 5.7938-29.588 6.585-0.051239 18.229-3.5075 36.284-3.8875 54.509-0.77249 15.068-3.7588 29.9-4.65 44.959-1.1638 20.922-5.8738 41.429-8.3637 62.201-4.91 35.102-15.325 69.076-22.036 103.82-1.1462 8.8275 0.3425 17.794-0.91126 26.631-0.82501 11.534 0.39999 23.144-0.63 34.67-1.1325 6.1825-0.16623 12.494-0.94998 18.709-1.885 13.651-3.38 27.512-1.6325 41.268 0.4375 38.806 7.8025 77.238 8.4175 116.04 1.6587 9.2101 0.037476 18.602 1.3012 27.852 0.76502 10.345-0.52624 20.781 1.1275 31.08-0.7825 17.435 3.66 34.454 6.835 51.458 2.36 13.511 7.4613 26.912 16.5 37.398 2.0075 3.0901 6.0088 1.8213 9.08 2.0312 6.3625 1.5601 7.5487 9.02 12.95 11.898 4.36 2.7462 8.82 5.3524 12.936 8.49 3.4112 3.8862 5.5163 8.6749 5.375 13.94 1.7325 1.4187 3.4375 2.89 5.1413 4.3888-0.016266 2.4424-0.012512 4.8962 0.027496 7.375-5.9888 2.3849-11.955 4.8262-17.941 7.2098-12.28 4.8977-25.846 6.6075-38.928 4.7201-6.7975-0.9812-13.786-0.58484-20.456-2.2726-5.9212-3.4611-13.059-4.5862-18.41-9.0011-5.6888-5.8525-9.1012-14.151-16.592-18.095-2.8575-1.8348-6.12-0.46619-9.1037 0.13-1.3838 1.4863-2.7663 2.9801-4.135 4.4939-7.4575 0.082397-14.62-2.2601-21.549-4.7526-7.2713-3.0387-15.271-5.6112-20.642-11.679-0.72873-6.7363-1.19-13.478-1.14-20.245-1.1088-6.86-0.655-13.809-1.2413-20.698-2.225-0.38611-4.4362-0.76868-6.65-1.0674-0.53125-2.6388-0.89624-5.3114-1.2913-7.9476-1.1937-9.4412-6.8912-17.858-6.2437-27.601 0.21374-9.7176 1.7713-19.369 1.91-29.064-3.0388-23.629-6.8825-47.218-7.8312-71.041 0.50626-14.259-1.4475-28.422-3.04-42.556-1.4225-11.548-0.815-23.257-2.9975-34.704-5.975-38.554-12.92-76.946-19.529-115.39-7.11-42.6-14.98-85.106-20.444-127.96-0.7475 19.351-0.17 38.734-0.34999 58.1 0.033737 48.734-0.070007 97.471 0.049988 146.2 1.2925 8.7225 0.071259 17.582 1.5075 26.296 0.4875 5.4451-0.265 10.964 0.66374 16.39 2.1738 22.574-2.07 44.986-4.6287 67.344-1.7688 12.435-1.0563 24.995-1.1813 37.515 0.27 25.799-1.485 52.004-9.64 76.674-2.3738 6.6374-5.95 13.564-4.1075 20.804 1.31 16.929-2.0975 33.786-2.39 50.705-5.3875 6.0888-13.336 8.7175-20.944 10.786-7.5237 1.8163-15.309 3.8614-23.075 2.5201-4.0038-2.2825-8.0612-4.5188-12.72-5.05-2.9388 0.75745-6.045 1.1787-8.6662 2.8137-8.0825 4.9299-12.821 13.951-21.356 18.263-5.42 2.8324-11.67 3.2013-17.252 5.5812-7.9275 3.75-16.895 3.6025-25.336 5.3726-5.7812 1.61-11.666-0.070068-17.514-0.11877-16.525-1.3438-31.95-7.8699-47.905-11.792 0.075016-3.055 0.41376-6.0801 1.405-8.96 1.8962-0.90002 3.7825-1.8113 5.6975-2.6652 0.40501-5.3125 2.3912-10.729 6.965-13.812 6.5375-4.1438 13.87-6.8562 20.592-10.676 3.6925-2.2576 6.0962-6.0299 9.5325-8.6 4.0362-2.2138 8.8625-1.09 13.261-1.25 7.6662-4.6938 12.2-12.68 16.951-20.011 5-9.6598 9.6512-20.552 7.3662-31.649-0.6625-11.245-2.1138-22.422-3.185-33.629 2.095-1.6499 6.8475-1.7675 6.4175-5.2661-1.1925-22.499-5.6412-45.019-2.8088-67.583 0.6775-24.268 5.915-48.159 6.6888-72.408 1.3962-8.3313-0.105-16.812 1.1325-25.149 1.055-15.476-0.80375-31.101 0.99376-46.514-1.8488-29.318-7.2263-58.252-12.922-87.024-2.2062-19.292-7.4925-38.076-9.4538-57.395-2.1375-19.241-2.6125-38.641-5.8588-57.756-4.0187-24.836-5.8862-49.945-8.8788-74.91-1.0862-18.848 2.2275-37.522 4.1512-56.205 1.1512-7.17 0.56375-14.504 2.1425-21.606 0.27-0.67999 0.80875-2.04 1.08-2.7212-6.9113-3.1663-14.511-4.6125-21.501-7.6313-2.8275-0.82752-5.72-2.9038-8.7375-1.8674 1.0537-2.8575 1.3937-5.8838 1.7987-8.8726 6.7987-54.914 13.858-109.79 20.716-164.69-0.88125-3.6113-0.020004-7.8263-2.1625-11.008-4.88-4.7426-10.58-8.55-16.185-12.372-9.295-6.4363-17.395-14.366-26.105-21.532-6.2-4.7275-10.459-11.366-15.596-17.122-7.5862-9.675-15.314-19.291-21.808-29.752-3.8688-6.525-8.165-13.112-9.2575-20.781-1.4912-7.0713 0.19501-14.21 0.24126-21.31 0.88375-22.594 6.1775-44.748 7.375-67.321 1.6162-17.245 4.3675-34.361 7.5-51.389 2.6912-13.809 5.9962-27.502 7.7713-41.475 0.415-4.85 5.1075-7.975 5.1988-12.879-2.9138-1.2775-7.665-3.8387-5.5575-7.6937 2.4975-2.8488 6.4838-3.9913 9.56-6.1825 0.4225-1.4888 0.86374-2.9712 1.3188-4.4488-1.7613-2.2188-3.6475-4.4725-4.48-7.2275-1.0675-6.2525 2.1287-11.975 3.2662-17.952 3.8088-19.745 8.1175-39.409 13.706-58.734 2.3638-7.5787 2.9888-15.619 5.76-23.076 1.7962-5.6012 7.1863-9.2562 12.65-10.73 16.836-4.3325 34.2-5.9338 51.212-9.4062 14.39-3.1762 29.276-5.0688 42.806-11.219 7.8762-3.435 16.374-6.2862 22.734-12.312 3.6213-3.965 6.53-8.655 11.045-11.735 10.485-7.53 22.289-12.962 33.068-20.044-1.7712 5.7475-4.1362 11.28-6.0275 16.981-2.0588 6.3688-1.0325 13.43 2.3062 19.18-1.1325 7.8438-4.8937 15.108-7.47 22.582-4.2712 11.196-5.4325 23.271-5.97 35.148-1.625 9.985 0.14999 20.042 0.97749 30.005 4.42 27.266 12.998 54.105 26.92 78.049 9.015 16.578 18.18 33.29 30.179 47.941 0.42752-0.20374 1.2825-0.60998 1.7088-0.81375l-1.5825-2.38c0.25751-16.428-0.17749-32.865 0.20627-49.285 1.6925-9.1325-0.10001-18.471 1.4587-27.61 0.71374-14.429 1.0588-28.858 2.2125-43.265 3.0438-20.456 12.098-39.552 13.934-60.24-2.3525-2.9712-5.0487-5.6388-7.6825-8.3462-3.1125 1.5512-6.1875 3.3775-8.0063 6.4525-5.2162 6.2638-8.7287 13.905-14.881 19.368 2.5488-10.441 8.6488-19.504 12.578-29.419 5-9.285 8.02-20.369 17.189-26.612-5.9587-3.615-12.499-6.0588-18.69-9.2125-10.869-5.1388-22.601-9.7175-31.298-18.242-1.3112-5.345 4.505-6.1125 8.3738-5.6088-1.1813 1.0325-2.3238 2.0962-3.4275 3.19 1.2962 2.0138 2.8612 3.8375 4.3025 5.7575 8.1688-4.4512 16.38-9.0012 25.399-11.535"/>
    </g>
   </g>
  </g>
 </g>
</svg>
