<?xml version="1.0" encoding="UTF-8" standalone="no"?>
<svg width="106.67" xmlns="http://www.w3.org/2000/svg" xmlns:xlink="http://www.w3.org/1999/xlink" height="106.67">
 <path id="path1683" stroke-linejoin="round" d="m71.546 8.7238c-5.0834 1.1839-9.503 4.804-11.424 10.07-1.2189 3.3415-1.1895 6.8146-0.25045 9.9877-5.1359 7.3988-23.488 25.664-31.809 31.939-6.645-0.12664-12.947 3.8485-15.349 10.434-1.8245 5.0014-0.93722 10.303 1.8302 14.406l3.8018-10.422c0.94927-2.6023 3.8085-3.933 6.4107-2.9837l7.5743 2.763c2.6023 0.94929 3.933 3.8085 2.9837 6.4107l-3.9625 10.862c5.0834-1.1839 9.503-4.804 11.424-10.07 1.5259-4.183 1.1771-8.5887-0.59351-12.325 6.7546-8.0549 23.208-24.966 31.142-29.655 7.1791 0.82284 14.277-3.3008 16.86-10.382 1.8245-5.0014 0.93721-10.303-1.8302-14.406l-3.8018 10.422c-0.94929 2.6023-3.8085 3.933-6.4107 2.9837l-7.5743-2.763c-2.6023-0.94927-3.933-3.8085-2.9837-6.4107l3.9625-10.862z" fill="rgba(255,255,255,.2)"/>
</svg>
